<?xml version="1.0" standalone="no"?>
<!DOCTYPE svg PUBLIC "-//W3C//DTD SVG 20010904//EN"
 "http://www.w3.org/TR/2001/REC-SVG-20010904/DTD/svg10.dtd">
<svg version="1.0" xmlns="http://www.w3.org/2000/svg"
 width="16.000000pt" height="16.000000pt" viewBox="0 0 16.000000 16.000000"
 preserveAspectRatio="xMidYMid meet">
<metadata>
Created by potrace 1.11, written by Peter Selinger 2001-2013
</metadata>
<g transform="translate(0.000000,16.000000) scale(0.001600,-0.001600)"
fill="#000000" stroke="none">
<path d="M4660 9989 c-1199 -81 -2341 -601 -3195 -1454 -629 -630 -1080 -1417
-1305 -2280 -266 -1021 -198 -2109 193 -3100 313 -793 852 -1521 1525 -2061
455 -364 1041 -679 1587 -854 999 -319 2066 -319 3070 1 449 142 960 399 1357
681 959 680 1651 1683 1948 2823 237 909 209 1881 -80 2790 -107 334 -312 779
-497 1078 -690 1112 -1755 1900 -3008 2227 -503 131 -1071 184 -1595 149z
m1325 -1829 c480 -42 848 -178 1146 -426 228 -190 392 -470 453 -774 57 -284
40 -605 -45 -848 -125 -356 -422 -663 -816 -844 -51 -23 -93 -45 -93 -48 0 -3
44 -20 98 -38 137 -47 301 -128 423 -211 389 -261 602 -612 660 -1084 17 -139
6 -443 -20 -569 -90 -438 -351 -810 -741 -1056 -99 -62 -301 -156 -430 -200
-137 -47 -257 -76 -434 -105 -130 -21 -148 -21 -1823 -24 l-1693 -4 0 3121 0
3120 1598 0 c1009 0 1641 -4 1717 -10z"/>
<path d="M3050 6605 l0 -1236 1458 4 c1599 3 1494 -1 1747 63 533 135 893 492
965 959 7 44 13 143 13 220 -1 292 -69 520 -211 711 -189 255 -496 417 -919
486 -137 22 -144 22 -1595 25 l-1458 4 0 -1236z"/>
<path d="M3050 3650 l0 -1391 1473 4 c1363 3 1480 4 1582 21 152 25 360 79
469 122 449 177 755 527 843 960 14 69 18 136 17 299 0 222 -12 310 -64 466
-141 426 -508 726 -1031 843 -273 61 -219 59 -1821 63 l-1468 4 0 -1391z"/>
</g>
</svg>
